<?xml version="1.0" encoding="UTF-8"?>
<svg version="1.1" xmlns="http://www.w3.org/2000/svg" width="512" height="512">
<path d="M0 0 C13.2 0 26.4 0 40 0 C40 20.13 40 40.26 40 61 C49.9 61 59.8 61 70 61 C70 40.87 70 20.74 70 0 C83.2 0 96.4 0 110 0 C110 21.45 110 42.9 110 65 C113.3 65.33 116.6 65.66 120 66 C122.80908203 66.55322266 122.80908203 66.55322266 125.0078125 67.1640625 C125.84127197 67.39536865 126.67473145 67.6266748 127.53344727 67.86499023 C128.38865967 68.11579346 129.24387207 68.36659668 130.125 68.625 C131.0337085 68.88933838 131.94241699 69.15367676 132.87866211 69.42602539 C157.84041619 76.92572558 181.84628469 90.63276637 195.25 113.7109375 C206.98166913 135.76019064 209.63153131 162.89213994 203 187 C196.70155477 206.974927 184.51960184 223.33191995 165.81689453 233.14550781 C163.88600567 234.11328885 161.94391104 235.05864894 160 236 C161.16015625 236.42410156 162.3203125 236.84820312 163.515625 237.28515625 C185.04490875 245.29422542 200.98076819 255.84553283 211 277 C212.63306143 280.61390446 213.91833373 284.18542812 215 288 C215.29777344 289.02351563 215.59554688 290.04703125 215.90234375 291.1015625 C222.54433011 318.22045612 217.99801192 349.28046354 203.5859375 373.1328125 C187.93548268 397.47661538 160.42583014 410.79996675 133 417 C125.38100763 418.55293477 117.79076224 420 110 420 C110 438.48 110 456.96 110 476 C96.8 476 83.6 476 70 476 C70 458.18 70 440.36 70 422 C60.1 422 50.2 422 40 422 C40 439.82 40 457.64 40 476 C26.8 476 13.6 476 0 476 C0 458.18 0 440.36 0 422 C-33.66 422 -67.32 422 -102 422 C-102 404.84 -102 387.68 -102 370 C-89.75842293 366.93960573 -77.39547104 364.3610421 -65 362 C-65 282.14 -65 202.28 -65 120 C-67.97 119.67 -70.94 119.34 -74 119 C-76.34177486 118.56691569 -78.6773628 118.09843697 -81.00390625 117.58984375 C-82.6756189 117.22814087 -82.6756189 117.22814087 -84.38110352 116.85913086 C-85.76096436 116.55499268 -87.1408252 116.25085449 -88.5625 115.9375 C-92.996875 114.968125 -97.43125 113.99875 -102 113 C-102 95.84 -102 78.68 -102 61 C-68.34 61 -34.68 61 0 61 C0 40.87 0 20.74 0 0 Z M23 128 C23 155.06 23 182.12 23 210 C34.6015625 210.0928125 34.6015625 210.0928125 46.4375 210.1875 C50.0425647 210.22846802 50.0425647 210.22846802 53.72045898 210.27026367 C72.8126351 210.39687527 94.24975343 209.95828702 109 196 C116.6630411 187.91802272 118.50401605 179.01750531 118.421875 168.11328125 C118.06113611 158.05056483 115.34610635 148.18778509 108 141 C95.00952556 129.72612397 78.3082024 127.64097964 61.671875 127.8046875 C60.6813916 127.80670166 59.6909082 127.80871582 58.67041016 127.81079102 C55.03022517 127.82112135 51.39010709 127.8490419 47.75 127.875 C39.5825 127.91625 31.415 127.9575 23 128 Z M23 268 C23 296.71 23 325.42 23 355 C37.6025 355.061875 37.6025 355.061875 52.5 355.125 C55.53896484 355.14320801 58.57792969 355.16141602 61.70898438 355.18017578 C93.90228864 355.84609355 93.90228864 355.84609355 121.75 341.4453125 C129.52777496 333.31753766 131.28455227 321.82250229 131.15234375 310.99609375 C130.4997345 298.16144509 127.52402169 287.56282551 118.46484375 278.1953125 C106.5284555 267.56417114 88.94812784 267.53185746 73.78125 267.70703125 C72.48026367 267.71005249 71.17927734 267.71307373 69.83886719 267.71618652 C65.05916207 267.73167786 60.27957158 267.77355858 55.5 267.8125 C44.775 267.874375 34.05 267.93625 23 268 Z " fill="#FFFFFF" transform="translate(198,18)"/>
</svg>
