<?xml version="1.0" encoding="UTF-8"?>
<svg version="1.1" xmlns="http://www.w3.org/2000/svg" width="512" height="512">
<path d="M0 0 C3.47497274 1.15832425 3.7005357 1.69068309 5.4609375 4.734375 C5.9252417 5.52457031 6.3895459 6.31476562 6.86791992 7.12890625 C7.36525635 7.99386719 7.86259277 8.85882813 8.375 9.75 C9.46082505 11.59978939 10.54810961 13.44872268 11.63671875 15.296875 C12.47468994 16.72483398 12.47468994 16.72483398 13.32958984 18.18164062 C15.88554428 22.4941133 18.53414443 26.74700984 21.1875 31 C26.34940047 39.29866302 31.43719192 47.64070538 36.5 56 C41.46134201 64.19091946 46.44400357 72.36699563 51.5 80.5 C56.93086708 89.23601599 62.27418472 98.02366512 67.60351562 106.82177734 C72.19786004 114.40489376 76.81887911 121.97001514 81.5 129.5 C86.93086708 138.23601599 92.27418472 147.02366512 97.60351562 155.82177734 C102.70181249 164.23668385 107.84514122 172.62175431 113.0402832 180.97729492 C116.12965058 185.95490205 119.19199431 190.94820367 122.23046875 195.95703125 C122.59626541 196.55998016 122.96206207 197.16292908 123.33894348 197.78414917 C125.18708436 200.83240419 127.03182347 203.88266692 128.87231445 206.93554688 C131.97176312 212.06918386 135.08551533 217.18434761 138.375 222.19921875 C138.85880127 222.94196045 139.34260254 223.68470215 139.84106445 224.44995117 C140.70843986 225.77059511 141.58889002 227.08278961 142.48510742 228.3840332 C143.60546875 230.09375 143.60546875 230.09375 145 233 C143.80889413 237.11102265 141.12888265 238.39809718 137.5234375 240.3984375 C136.3900293 241.03539551 135.25662109 241.67235352 134.08886719 242.32861328 C132.85091674 243.01075177 131.61296087 243.69288043 130.375 244.375 C129.09986725 245.08839792 127.82546084 245.80309554 126.55175781 246.51904297 C124.60108954 247.61537236 122.65004898 248.71095717 120.69677734 249.80264282 C114.67176299 253.17077749 108.70439095 256.63360239 102.75 260.125 C100.78646905 261.27345582 98.8229274 262.42189335 96.859375 263.5703125 C95.41208008 264.41770996 95.41208008 264.41770996 93.93554688 265.28222656 C88.96021441 268.19360707 83.97982558 271.09631397 79 274 C76.99997639 275.1666262 74.99997638 276.33329284 73 277.5 C61 284.5 61 284.5 57.99829102 286.25097656 C56.003964 287.41434752 54.00966051 288.57775879 52.01538086 289.74121094 C46.92877902 292.70863778 41.84173479 295.67530184 36.75390625 298.640625 C35.21246948 299.53974609 35.21246948 299.53974609 33.63989258 300.45703125 C31.61113232 301.63903961 29.58104964 302.81878154 27.54956055 303.99609375 C22.9572505 306.66232574 18.39364865 309.35704374 13.890625 312.171875 C13.11130615 312.65237305 12.3319873 313.13287109 11.52905273 313.62792969 C10.09710418 314.51432146 8.67392944 315.41512028 7.26196289 316.33300781 C5.36328125 317.5 5.36328125 317.5 2 319 C-1.8770355 317.83495567 -5.2705 315.80571991 -8.76953125 313.796875 C-9.89327148 313.15347168 -11.01701172 312.51006836 -12.17480469 311.84716797 C-13.38744947 311.14825021 -14.60001254 310.44919066 -15.8125 309.75 C-17.07313855 309.02602393 -18.33388216 308.30223079 -19.59472656 307.57861328 C-30.44797634 301.34323871 -41.26286499 295.04215019 -52.06445312 288.71777344 C-57.03978559 285.80639293 -62.02017442 282.90368603 -67 280 C-69.00002361 278.8333738 -71.00002362 277.66670716 -73 276.5 C-74.485 275.63375 -74.485 275.63375 -76 274.75 C-79 273 -82 271.25 -85 269.5 C-85.9907251 268.92209717 -86.9814502 268.34419434 -88.00219727 267.7487793 C-89.99494394 266.58630316 -91.98762014 265.42370621 -93.98022461 264.26098633 C-100.13867568 260.66767496 -106.29989758 257.0791677 -112.46289062 253.49365234 C-115.47925539 251.7360069 -118.49187838 249.97209568 -121.50390625 248.20703125 C-124.93438158 246.19774435 -128.3771348 244.21487475 -131.83984375 242.26171875 C-133.22660328 241.46621693 -134.61332529 240.67064968 -136 239.875 C-136.62334229 239.53299561 -137.24668457 239.19099121 -137.88891602 238.83862305 C-139.5625 237.8671875 -139.5625 237.8671875 -142 236 C-142 231.2629055 -140.39022412 228.77186268 -138 224.875 C-137.56139648 224.14490723 -137.12279297 223.41481445 -136.67089844 222.66259766 C-135.12568145 220.10106697 -133.56448766 217.54980526 -132 215 C-131.39994141 214.0203125 -130.79988281 213.040625 -130.18164062 212.03125 C-126.82337959 206.55396391 -123.45381133 201.08374871 -120.078125 195.6171875 C-116.36051797 189.59312531 -112.67405209 183.55069795 -109 177.5 C-103.35577964 168.20847219 -97.66475235 158.94644681 -91.9609375 149.69140625 C-87.61836178 142.64100823 -83.29916813 135.57694115 -79 128.5 C-73.35557022 119.20859847 -67.66475328 109.94644833 -61.9609375 100.69140625 C-57.61836178 93.64100823 -53.29916813 86.57694115 -49 79.5 C-43.35863621 70.21364545 -37.67185063 60.95593952 -31.96972656 51.70678711 C-27.53510109 44.50884235 -23.13403724 37.29134181 -18.75 30.0625 C-12.62216416 19.96337197 -6.34716028 9.96248418 0 0 Z " fill="#FFFFFF" transform="translate(255,28)"/>
<path d="M0 0 C4.90475547 1.39493045 8.88677234 3.61586015 13.125 6.375 C14.55884913 7.28940379 15.99379446 8.20209037 17.4296875 9.11328125 C18.17959961 9.58975098 18.92951172 10.0662207 19.70214844 10.55712891 C23.51581298 12.95181202 27.38240792 15.2562924 31.25 17.5625 C39.35349145 22.40448263 47.43291957 27.28515678 55.5 32.1875 C56.09059204 32.54635284 56.68118408 32.90520569 57.28967285 33.27493286 C60.31699855 35.11446152 63.34410525 36.95435014 66.37109375 38.79443359 C71.66654392 42.01325403 76.96400781 45.22875691 82.26135254 48.44445801 C83.9982353 49.49892864 85.73497878 50.55362832 87.47167969 51.60839844 C92.83208881 54.86382604 98.1932478 58.11799336 103.55763245 61.36686707 C105.41037868 62.48913009 107.2627071 63.61208026 109.11499023 64.73510742 C111.50606644 66.18465968 113.89898278 67.63110338 116.29321289 69.07543945 C121.29103919 72.09886881 126.2633399 75.13836856 131.13671875 78.359375 C131.87889648 78.84543213 132.62107422 79.33148926 133.38574219 79.83227539 C134.70057625 80.70074801 136.00574129 81.58415031 137.29785156 82.48608398 C139.14947744 83.76649913 139.14947744 83.76649913 142 85 C145.61434168 83.89321418 148.6454425 82.10190034 151.82421875 80.0859375 C152.75685547 79.498125 153.68949219 78.9103125 154.65039062 78.3046875 C155.65263672 77.66789062 156.65488281 77.03109375 157.6875 76.375 C159.85753699 75.00696202 162.02812892 73.63980399 164.19921875 72.2734375 C165.03802078 71.7448111 165.03802078 71.7448111 165.89376831 71.20550537 C171.90052483 67.4237243 177.94918489 63.71078381 184 60 C193.46534975 54.18847577 202.89927106 48.32911865 212.3125 42.43359375 C219.54470683 37.90510493 226.79477371 33.40642048 234.05444336 28.92211914 C240.84452503 24.72436862 247.61078365 20.48926849 254.375 16.25 C263.18907223 10.72851665 272.04749426 5.29402983 281 0 C281.33 0.66 281.66 1.32 282 2 C274.18178927 13.26294186 266.36063599 24.52306235 258.44042969 35.71459961 C254.60891958 41.13051536 250.80140293 46.56291716 247 52 C240.21031179 61.70910557 233.38088368 71.38968727 226.54101562 81.06347656 C220.07384826 90.21162586 213.63142578 99.37654274 207.21142578 108.55786133 C203.00396642 114.57257099 198.77650817 120.57279994 194.5390625 126.56640625 C190.67663516 132.03306928 186.83568189 137.51454557 183 143 C177.18486224 151.31540834 171.34326006 159.61165659 165.48535156 167.89697266 C163.94381562 170.07954837 162.40517142 172.26413881 160.8671875 174.44921875 C155.30675153 182.34597235 149.7167134 190.21518146 144 198 C140.94233658 196.67908291 139.30979489 195.46795581 137.44140625 192.71875 C136.98000244 192.05109619 136.51859863 191.38344238 136.04321289 190.69555664 C135.55457764 189.97102295 135.06594238 189.24648926 134.5625 188.5 C133.49061267 186.94590413 132.41766093 185.39254197 131.34375 183.83984375 C130.51617187 182.63690674 130.51617187 182.63690674 129.671875 181.40966797 C127.02118061 177.58923081 124.2935549 173.82570929 121.5625 170.0625 C120.47001208 168.55341437 119.37756437 167.04429964 118.28515625 165.53515625 C117.74262207 164.78637207 117.20008789 164.03758789 116.64111328 163.26611328 C113.92351831 159.51355206 111.21202514 155.7565875 108.5 152 C105.21611457 147.45220514 101.93154952 142.90490621 98.64453125 138.359375 C93.34317769 131.02666167 88.05344563 123.68638156 82.80126953 116.31835938 C77.23725805 108.51938454 71.61413768 100.76291881 66 93 C59.57894591 84.12132185 53.16146398 75.24076658 46.80126953 66.31835938 C41.23725805 58.51938454 35.61413768 50.76291881 30 43 C22.30198142 32.35560605 14.60891689 21.70835331 7 11 C6.28328125 9.99324219 5.5665625 8.98648437 4.828125 7.94921875 C4.18359375 7.03785156 3.5390625 6.12648438 2.875 5.1875 C2.31554687 4.39730469 1.75609375 3.60710937 1.1796875 2.79296875 C0 1 0 1 0 0 Z " fill="#FFFFFF" transform="translate(113,286)"/>
</svg>
