<?xml version="1.0" encoding="UTF-8"?>
<svg version="1.1" xmlns="http://www.w3.org/2000/svg" width="512" height="512">
<path d="M0 0 C1.50845993 0.00648056 1.50845993 0.00648056 3.0473938 0.01309204 C17.95423945 0.08807662 32.50931999 0.56177365 47.1875 3.375 C48.12916016 3.54660645 49.07082031 3.71821289 50.04101562 3.89501953 C97.76724641 12.75461679 137.65864961 35.98717018 171.9375 69.8125 C172.82034668 70.6775415 173.70319336 71.54258301 174.61279297 72.43383789 C175.43666504 73.25875732 176.26053711 74.08367676 177.109375 74.93359375 C177.84768555 75.66892334 178.58599609 76.40425293 179.34667969 77.16186523 C181.27642029 79.48190483 182.23328087 81.52891325 183.1875 84.375 C182.82100342 84.81666504 182.45450684 85.25833008 182.0769043 85.71337891 C175.39006584 93.7801405 168.74430719 101.8683687 162.3034668 110.13330078 C158.82072372 114.59360023 155.26581605 118.99111647 151.6875 123.375 C147.41531752 128.61252529 143.17857231 133.87490339 139 139.1875 C138.54238281 139.76822266 138.08476562 140.34894531 137.61328125 140.94726562 C135.70958628 143.37621789 133.90052213 145.80546681 132.1875 148.375 C127.91279374 146.77707409 125.37277459 143.5162243 122.4375 140.1875 C117.94044029 135.20909739 113.37492494 130.64129341 108.1875 126.375 C107.34316406 125.6428125 106.49882812 124.910625 105.62890625 124.15625 C97.23559641 116.95873057 88.35777673 110.54550437 79.1875 104.375 C78.15753906 103.68019531 77.12757813 102.98539062 76.06640625 102.26953125 C62.87862354 93.98372602 47.48639925 90.346834 32.1875 88.375 C31.47972412 88.2807373 30.77194824 88.18647461 30.04272461 88.08935547 C-10.02278363 83.39158534 -47.84968199 90.15404082 -80.171875 115.06591797 C-84.97919417 118.90175806 -89.43558138 123.05921153 -93.8125 127.375 C-94.65296875 128.20257813 -95.4934375 129.03015625 -96.359375 129.8828125 C-101.54391708 135.28200123 -105.83222137 141.04723433 -110 147.25 C-110.47501953 147.95648682 -110.95003906 148.66297363 -111.43945312 149.39086914 C-115.68728424 155.88199452 -119.09541596 162.47184392 -122.8125 169.375 C-67.0425 169.705 -11.2725 170.035 46.1875 170.375 C46.1875 191.165 46.1875 211.955 46.1875 233.375 C-15.1925 233.375 -76.5725 233.375 -139.8125 233.375 C-139.49834521 262.91327216 -139.49834521 262.91327216 -137.8125 292.375 C-77.0925 292.375 -16.3725 292.375 46.1875 292.375 C46.1875 313.165 46.1875 333.955 46.1875 355.375 C-34.9925 355.87 -34.9925 355.87 -117.8125 356.375 C-108.59319216 371.65425948 -108.59319216 371.65425948 -97.8125 385.375 C-97.11898437 386.2 -96.42546875 387.025 -95.7109375 387.875 C-75.04276817 411.92523341 -46.50664702 424.56270543 -15.3125 428.125 C-13.48094748 428.24106438 -11.64688867 428.31955856 -9.8125 428.375 C-9.14847168 428.39546387 -8.48444336 428.41592773 -7.80029297 428.43701172 C15.0441103 429.03909684 38.41848484 426.56357347 59.1875 416.375 C60.32960938 415.82328125 61.47171875 415.2715625 62.6484375 414.703125 C84.3072757 403.88232576 106.28885257 387.20401513 122.296875 368.97265625 C124.1875 367.375 124.1875 367.375 126.18359375 367.328125 C128.96216653 368.77969908 130.33345134 370.64602491 132.25 373.125 C133.03503906 374.12015625 133.82007813 375.1153125 134.62890625 376.140625 C135.04414551 376.66978516 135.45938477 377.19894531 135.88720703 377.74414062 C138.09076687 380.5078995 140.3921661 383.18742803 142.6875 385.875 C146.80982944 390.723458 150.85744086 395.62664163 154.875 400.5625 C157.44898071 403.69301707 160.0640646 406.78596267 162.6875 409.875 C163.61082504 410.96732287 164.53400319 412.05976992 165.45703125 413.15234375 C167.25514714 415.27995396 169.06677565 417.39495646 170.88671875 419.50390625 C171.70785156 420.47199219 172.52898437 421.44007813 173.375 422.4375 C174.11105469 423.29472656 174.84710938 424.15195312 175.60546875 425.03515625 C177.1875 427.375 177.1875 427.375 177.1875 431.375 C174.60077753 435.35088825 171.33462702 438.83294342 168.1875 442.375 C167.65189453 442.97908691 167.11628906 443.58317383 166.56445312 444.20556641 C159.27115026 452.36562778 151.87525208 459.69719969 143.1875 466.375 C142.39214844 467.03628906 141.59679687 467.69757813 140.77734375 468.37890625 C110.60653601 493.4476587 72.65964601 506.42707409 34.1875 511.375 C33.40149414 511.4773999 32.61548828 511.5797998 31.80566406 511.68530273 C5.5398828 514.57516182 -23.0054074 514.01986985 -48.8125 508.375 C-49.6782666 508.18776367 -50.5440332 508.00052734 -51.43603516 507.80761719 C-56.97273598 506.5658005 -62.39549452 505.0597202 -67.8125 503.375 C-68.58513184 503.13974609 -69.35776367 502.90449219 -70.15380859 502.66210938 C-112.40324201 489.57195179 -151.42580328 463.16223267 -178.8125 428.375 C-179.59238281 427.42367188 -180.37226563 426.47234375 -181.17578125 425.4921875 C-198.21820051 404.23672998 -210.23195069 379.11664792 -218.8125 353.375 C-245.2125 353.045 -271.6125 352.715 -298.8125 352.375 C-298.8125 331.585 -298.8125 310.795 -298.8125 289.375 C-277.6925 289.375 -256.5725 289.375 -234.8125 289.375 C-235.4725 284.755 -236.1325 280.135 -236.8125 275.375 C-236.96154249 271.68034877 -237.05076655 268.07043472 -237.0078125 264.3828125 C-237.00579834 263.53195068 -237.00378418 262.68108887 -237.00170898 261.80444336 C-236.99144542 258.70290537 -236.96352773 255.60144576 -236.9375 252.5 C-236.89625 245.52875 -236.855 238.5575 -236.8125 231.375 C-257.2725 231.375 -277.7325 231.375 -298.8125 231.375 C-298.8125 212.235 -298.8125 193.095 -298.8125 173.375 C-274.0625 173.375 -249.3125 173.375 -223.8125 173.375 C-222.8225 169.745 -221.8325 166.115 -220.8125 162.375 C-204.94690141 115.38567083 -175.19534659 76.09989899 -135.8125 46.375 C-135.19584473 45.90674805 -134.57918945 45.43849609 -133.94384766 44.95605469 C-125.53384483 38.59161097 -117.00281435 32.57750294 -107.8125 27.375 C-107.06790527 26.9521875 -106.32331055 26.529375 -105.55615234 26.09375 C-89.22167218 16.92899684 -72.4574804 10.03154608 -54.25 5.5625 C-53.50943359 5.37961426 -52.76886719 5.19672852 -52.00585938 5.00830078 C-34.77045897 1.09083488 -17.62835958 -0.14438825 0 0 Z " fill="#FFFFFF" transform="translate(313.8125,-0.375)"/>
</svg>
