<?xml version="1.0" encoding="UTF-8"?>
<svg version="1.1" xmlns="http://www.w3.org/2000/svg" width="512" height="512">
<path d="M0 0 C0.77601563 0.00182281 1.55203125 0.00364563 2.3515625 0.00552368 C13.79673827 0.0508216 24.72187207 0.56611658 35.875 3.3125 C36.61459961 3.47878906 37.35419922 3.64507812 38.11621094 3.81640625 C76.78217567 12.51262489 109.26061977 33.8179599 138.875 59.3125 C135.01430559 67.67126762 127.22612027 74.17209452 120.99121094 80.8215332 C117.53330561 84.51453561 114.14838714 88.24809549 110.8515625 92.0859375 C107.29838427 96.08852957 103.60958413 99.96782208 99.93554688 103.859375 C96.44125739 107.57521566 93.09858103 111.35905157 89.875 115.3125 C86.18890794 112.56600003 82.51443214 109.81731485 78.90625 106.96875 C52.67605384 86.26623788 22.80354166 72.73856523 -11.125 75.3125 C-32.38483432 78.11583826 -49.60440097 91.37320498 -62.37060547 107.92773438 C-73.4911295 122.88247267 -81.51670455 140.28410092 -86.125 158.3125 C-86.39086914 159.32497803 -86.39086914 159.32497803 -86.66210938 160.35791016 C-89.03435714 169.56214585 -90.59834174 178.82632194 -91.8125 188.25 C-91.93189941 189.16523438 -92.05129883 190.08046875 -92.17431641 191.0234375 C-93.30595552 200.46959442 -93.62151394 209.74626481 -94.125 219.3125 C-40.335 219.3125 13.455 219.3125 68.875 219.3125 C68.875 243.7325 68.875 268.1525 68.875 293.3125 C16.405 293.3125 -36.065 293.3125 -90.125 293.3125 C-89.63 300.2425 -89.63 300.2425 -89.125 307.3125 C-89.03349479 310.30110635 -88.96226724 313.26687087 -88.95703125 316.25390625 C-88.95279648 317.0208078 -88.94856171 317.78770935 -88.94419861 318.57785034 C-88.93448141 321.01029209 -88.9342497 323.44254265 -88.9375 325.875 C-88.93810425 326.71354523 -88.9387085 327.55209045 -88.93933105 328.41604614 C-88.96419143 341.14562079 -89.27149256 353.69807231 -91.125 366.3125 C-91.25390625 367.21887207 -91.3828125 368.12524414 -91.515625 369.05908203 C-93.9891542 385.95866868 -97.95666 402.36999514 -104.125 418.3125 C-102.25134766 417.74982422 -102.25134766 417.74982422 -100.33984375 417.17578125 C-87.05858601 413.24704913 -73.73469505 409.89563659 -60.125 407.3125 C-59.24827637 407.14588867 -58.37155273 406.97927734 -57.46826172 406.80761719 C-34.15771606 402.57411707 -9.34968642 402.54461125 13.875 407.3125 C14.69436035 407.47878906 15.5137207 407.64507812 16.35791016 407.81640625 C35.99233681 411.94916415 54.1145298 419.75977109 72.28735352 428.09985352 C82.77360939 432.87278288 93.29722325 437.42959648 104.9921875 437.4453125 C106.39791016 437.44724609 106.39791016 437.44724609 107.83203125 437.44921875 C109.27642578 437.44341797 109.27642578 437.44341797 110.75 437.4375 C111.70519531 437.44136719 112.66039062 437.44523437 113.64453125 437.44921875 C114.58425781 437.44792969 115.52398437 437.44664062 116.4921875 437.4453125 C117.33378418 437.44418457 118.17538086 437.44305664 119.04248047 437.44189453 C122.69217628 437.27516993 126.25394542 436.79849253 129.875 436.3125 C130.39987705 439.05856754 130.92461955 441.80466063 131.44921875 444.55078125 C131.61352386 445.41086792 131.77782898 446.27095459 131.94711304 447.15710449 C133.40623483 454.79897335 134.85755874 462.44231309 136.30769348 470.08589172 C137.24964909 475.04468978 138.1999679 480.00163936 139.16807556 484.95539856 C139.76402618 488.010748 140.3495919 491.0680944 140.9375 494.125 C141.15301514 495.20628174 141.36853027 496.28756348 141.59057617 497.40161133 C141.7785376 498.3892749 141.96649902 499.37693848 142.16015625 500.39453125 C142.32394775 501.23218018 142.48773926 502.0698291 142.65649414 502.93286133 C142.90077121 505.5931614 142.51632684 507.73080734 141.875 510.3125 C131.18966067 512.00798481 120.80787017 512.68014065 110 512.625 C108.88180878 512.62226578 108.88180878 512.62226578 107.74102783 512.61947632 C96.84509649 512.57465692 86.45105543 512.16838325 75.875 509.3125 C74.64910156 508.99539063 73.42320312 508.67828125 72.16015625 508.3515625 C57.36741871 504.24583082 43.24263949 497.62365936 29.26196289 491.36962891 C-15.41879863 471.43814832 -55.35346808 482.17249899 -100.36911011 494.84735107 C-118.39153244 499.92083531 -136.3096827 504.48292781 -154.875 507.125 C-155.74431152 507.24931396 -156.61362305 507.37362793 -157.50927734 507.50170898 C-162.0108674 508.0876866 -166.40057639 508.36884559 -170.94238281 508.3425293 C-171.91749817 508.33819382 -172.89261353 508.33385834 -173.89727783 508.32939148 C-174.63242615 508.32381729 -175.36757446 508.3182431 -176.125 508.3125 C-179.96187678 500.84725979 -183.7792215 493.37249545 -187.57201576 485.88477802 C-189.3337776 482.40822737 -191.10207848 478.9353424 -192.88574219 475.4699707 C-194.60678736 472.1256553 -196.31010082 468.77285513 -198.00147629 465.41344261 C-198.64989751 464.13323224 -199.30464917 462.85620799 -199.96577835 461.58251381 C-200.89051712 459.79834016 -201.79080833 458.00155941 -202.68994141 456.2043457 C-203.20956451 455.18508499 -203.72918762 454.16582428 -204.26455688 453.11567688 C-205.125 450.3125 -205.125 450.3125 -204.34832764 447.56019592 C-203.23027486 445.50592804 -202.08636731 443.59672108 -200.7265625 441.6953125 C-185.91246719 420.50530721 -174.21522213 397.50614389 -168.25 372.25 C-167.96298218 371.04911743 -167.96298218 371.04911743 -167.67016602 369.82397461 C-163.84069998 352.12074112 -163.85578832 334.08079678 -164 316.0625 C-164.01006458 313.84114993 -164.01918419 311.61979538 -164.02734375 309.3984375 C-164.04732209 304.03625154 -164.08651524 298.67471019 -164.125 293.3125 C-177.325 293.3125 -190.525 293.3125 -204.125 293.3125 C-204.125 268.8925 -204.125 244.4725 -204.125 219.3125 C-192.245 219.3125 -180.365 219.3125 -168.125 219.3125 C-168.186875 216.074375 -168.24875 212.83625 -168.3125 209.5 C-168.69756326 148.47411194 -147.95003607 86.64688671 -104.875 42.625 C-76.64123319 14.74351086 -39.54342113 -0.19234207 0 0 Z " fill="#FFFFFF" transform="translate(287.125,-0.3125)"/>
</svg>
