<?xml version="1.0" encoding="UTF-8"?>
<svg version="1.1" xmlns="http://www.w3.org/2000/svg" width="512" height="512">
<path d="M0 0 C22.77 0 45.54 0 69 0 C69 17.49 69 34.98 69 53 C73.29 53.33 77.58 53.66 82 54 C85.59091871 54.58712831 89.08171943 55.21533334 92.625 56 C93.59083008 56.21366211 94.55666016 56.42732422 95.55175781 56.64746094 C117.79627428 61.8135178 139.76293006 69.53827055 159 82 C158.09839494 86.20901197 156.04922134 89.41502115 153.75 93 C153.31034912 93.69424072 152.87069824 94.38848145 152.41772461 95.10375977 C147.22307615 103.27863369 141.9246642 111.38737558 136.63134766 119.49853516 C133.99790155 123.53659094 131.3724476 127.57979521 128.75 131.625 C128.05112671 132.69995728 128.05112671 132.69995728 127.33813477 133.79663086 C125.03353403 137.31915254 125.03353403 137.31915254 123 141 C119.57735199 139.68906124 116.28582097 138.19316207 112.99121094 136.58911133 C78.86432444 120.10159278 37.72440435 116.25842848 1.640625 128.609375 C-5.66182289 131.39872205 -12.01034095 134.97641499 -18 140 C-18.66 140 -19.32 140 -20 140 C-20.2784375 140.58910156 -20.556875 141.17820313 -20.84375 141.78515625 C-21.92005427 143.84686072 -23.13184016 145.56462265 -24.5 147.4375 C-29.72462482 155.80930238 -29.54430055 165.63829516 -27.76171875 175.05078125 C-26.01743389 181.80429443 -23.26655432 186.36041643 -18 191 C-17.10925781 191.79148438 -16.21851563 192.58296875 -15.30078125 193.3984375 C-11.97380087 196.15718591 -8.44187087 198.06478245 -4.5625 199.9375 C-3.85714111 200.28176025 -3.15178223 200.62602051 -2.42504883 200.98071289 C16.97843634 210.31895209 37.71230794 216.46702884 58.24804688 222.79052734 C101.22428265 236.02717747 144.71204662 252.95771324 167.21533203 294.74804688 C176.01251496 311.76949568 179.39715941 329.73026921 179.3125 348.8125 C179.31034485 349.47397034 179.3081897 350.13544067 179.30596924 350.81695557 C179.25498336 360.56822519 178.93885819 369.64001392 176 379 C175.70198486 379.9600293 175.70198486 379.9600293 175.39794922 380.93945312 C170.92330152 394.97677489 163.71179383 406.8843231 154 418 C153.42121094 418.66257812 152.84242188 419.32515625 152.24609375 420.0078125 C131.13116068 442.53648839 99.10290302 454.655233 69 458 C69 475.82 69 493.64 69 512 C46.23 512 23.46 512 0 512 C0 493.85 0 475.7 0 457 C-5.94 455.68 -11.88 454.36 -18 453 C-49.69898446 443.49030466 -77.86321735 427.90800874 -101 404 C-97.77390536 396.47810566 -90.18931009 391.09859374 -84.09765625 385.87890625 C-81.635741 383.67372704 -79.3227636 381.35113323 -77 379 C-73.50735825 375.46482989 -69.93768236 372.1474301 -66.14453125 368.94140625 C-64.41159084 367.37260591 -62.80681303 365.7818489 -61.19921875 364.08984375 C-60.71122803 363.5805835 -60.2232373 363.07132324 -59.72045898 362.54663086 C-58.75442619 361.53055619 -57.79906053 360.50421136 -56.85571289 359.46704102 C-55.515625 358.0625 -55.515625 358.0625 -53 356 C-50.39207099 356 -49.46931116 356.56915697 -47.5703125 358.3125 C-47.09335938 358.869375 -46.61640625 359.42625 -46.125 360 C-33.72876467 372.86997681 -13.931462 381.42140824 3 386 C3.7101123 386.19609863 4.42022461 386.39219727 5.15185547 386.59423828 C32.669118 393.89595494 65.43551461 392.33102367 91 379.0625 C99.99209549 373.77381569 105.89184682 368.3348839 109 358 C110.81756942 345.34402122 109.39205472 332.60597083 101.6875 322.125 C81.3605335 298.28155406 42.86005465 290.94577549 13.9375 282.375 C-9.55941764 275.36124428 -34.20528136 266.85361735 -54 252 C-54.83144531 251.38898438 -55.66289062 250.77796875 -56.51953125 250.1484375 C-66.90280878 242.20155107 -75.99538175 233.06389837 -83 222 C-83.44730469 221.34773437 -83.89460938 220.69546875 -84.35546875 220.0234375 C-98.46880159 198.9185767 -101.86039707 168.61505894 -97.40966797 144.04443359 C-94.07881035 127.42190575 -87.27931719 111.80955279 -76 99 C-75.35933594 98.21753906 -74.71867187 97.43507813 -74.05859375 96.62890625 C-56.86600451 76.33341876 -29.80897874 62.50205437 -4 57 C-2.68 57 -1.36 57 0 57 C0 38.19 0 19.38 0 0 Z " fill="#FFFFFF" transform="translate(217,0)"/>
</svg>
